<?xml version="1.0" encoding="UTF-8"?>
<svg xmlns="http://www.w3.org/2000/svg" version="1.1" viewBox="0 0 24 24">
  <defs>
    <style>
      .cls-1 {
        fill: #e06412;
      }
    </style>
  </defs>
  <!-- Generator: Adobe Illustrator 28.7.1, SVG Export Plug-In . SVG Version: 1.2.0 Build 142)  -->
  <g>
    <g id="Ebene_1">
      <path class="cls-1" d="M12,20c-.8-.6-1.7-1.1-2.6-1.5s-1.9-.5-2.9-.5-1.9.2-2.9.5c-.9.3-1.8.7-2.7,1.2V5.5c.8-.6,1.7-1,2.6-1.2.9-.2,1.9-.4,2.9-.4s1.9.1,2.9.4,1.8.6,2.7,1.1v12.1c.8-.5,1.7-.9,2.6-1.2s1.9-.4,2.9-.4,1.2,0,1.8.2,1.2.3,1.7.5V4.6c.4.1.7.3,1,.4s.7.3,1,.6v14.1c-.9-.5-1.7-.9-2.7-1.2s-1.9-.5-2.9-.5-2,.2-2.9.5-1.8.8-2.6,1.5ZM14,15V5.5L19,.5v10l-5,4.5ZM10,16.6V6.7c-.6-.2-1.1-.4-1.7-.5s-1.2-.2-1.8-.2-1.2,0-1.8.2-1.2.3-1.7.5v9.9c.6-.2,1.1-.4,1.7-.5s1.2-.2,1.8-.2,1.2,0,1.8.2,1.2.3,1.7.5ZM10,16.6V6.7v9.9Z"/>
    </g>
  </g>
</svg>