<?xml version="1.0" encoding="UTF-8"?>
<svg xmlns="http://www.w3.org/2000/svg" version="1.1" viewBox="0 0 24 24">
  <defs>
    <style>
      .cls-1 {
        fill: #e06412;
      }
    </style>
  </defs>
  <!-- Generator: Adobe Illustrator 28.7.1, SVG Export Plug-In . SVG Version: 1.2.0 Build 142)  -->
  <g>
    <g id="Ebene_1">
      <path class="cls-1" d="M15.5,15l1.1-1.1-2.1-2.1c.2-.3.3-.6.4-.9,0-.3.1-.7.1-1,0-1-.3-1.8-1-2.5s-1.5-1-2.5-1-1.8.3-2.5,1-1,1.5-1,2.5.3,1.8,1,2.5,1.5,1,2.5,1,.7,0,1-.1.6-.2.9-.4l2.1,2.1ZM11.5,12c-.6,0-1-.2-1.4-.6-.4-.4-.6-.9-.6-1.4s.2-1,.6-1.4.9-.6,1.4-.6,1,.2,1.4.6.6.9.6,1.4-.2,1-.6,1.4-.9.6-1.4.6ZM1,21v-2h22v2H1ZM2,18V3h20v15H2ZM4,16h16V5H4v11ZM4,16V5v11Z"/>
    </g>
  </g>
</svg>