<svg width="40" height="41" viewBox="0 0 40 41" fill="none" xmlns="http://www.w3.org/2000/svg">
<path d="M4.66659 3.83333V15.3812V15.3333V34.5V3.83333ZM8.49992 23H15.2083C15.4958 22.2653 15.8471 21.5785 16.2624 20.9396C16.6777 20.3007 17.1569 19.7097 17.6999 19.1667H8.49992V23ZM8.49992 30.6667H14.5853C14.4256 30.0278 14.3218 29.3889 14.2739 28.75C14.226 28.1111 14.2339 27.4722 14.2978 26.8333H8.49992V30.6667ZM0.833252 38.3333V0H19.9999L31.4999 11.5V16.2917C30.893 16.0361 30.2701 15.8365 29.6312 15.6927C28.9923 15.549 28.3374 15.4451 27.6666 15.3812V13.4167H18.0833V3.83333H4.66659V34.5H16.2145C16.7256 35.2667 17.3006 35.9774 17.9395 36.6323C18.5784 37.2872 19.2812 37.8542 20.0478 38.3333H0.833252ZM26.7083 32.5833C28.0499 32.5833 29.1839 32.1201 30.1103 31.1937C31.0367 30.2674 31.4999 29.1333 31.4999 27.7917C31.4999 26.45 31.0367 25.316 30.1103 24.3896C29.1839 23.4632 28.0499 23 26.7083 23C25.3666 23 24.2326 23.4632 23.3062 24.3896C22.3798 25.316 21.9166 26.45 21.9166 27.7917C21.9166 29.1333 22.3798 30.2674 23.3062 31.1937C24.2326 32.1201 25.3666 32.5833 26.7083 32.5833ZM36.4832 40.25L31.3083 35.075C30.6374 35.5222 29.9107 35.8576 29.128 36.0812C28.3454 36.3049 27.5388 36.4167 26.7083 36.4167C24.3124 36.4167 22.276 35.5781 20.5989 33.901C18.9218 32.224 18.0833 30.1875 18.0833 27.7917C18.0833 25.3958 18.9218 23.3594 20.5989 21.6823C22.276 20.0052 24.3124 19.1667 26.7083 19.1667C29.1041 19.1667 31.1405 20.0052 32.8176 21.6823C34.4947 23.3594 35.3333 25.3958 35.3333 27.7917C35.3333 28.6222 35.2214 29.4288 34.9978 30.2115C34.7742 30.9941 34.4388 31.7208 33.9916 32.3917L39.1666 37.5667L36.4832 40.25Z" fill="#E06412"/>
</svg>
