<svg width="32" height="32" viewBox="0 0 32 32" fill="none" xmlns="http://www.w3.org/2000/svg">
<path d="M28.75 30.9167C25.5925 30.9167 22.3633 30.1435 19.0625 28.5971C15.7617 27.051 12.7037 24.8704 9.88875 22.0554C7.05542 19.2407 4.86569 16.1852 3.31958 12.8888C1.77319 9.59266 1 6.35196 1 3.16669V0.916687H10.25L11.875 8.95835L7.04167 13.8613C7.76389 15.0557 8.5232 16.1714 9.31958 17.2084C10.1157 18.2453 10.9536 19.199 11.8333 20.0696C12.7686 21.0046 13.7756 21.8866 14.8542 22.7154C15.9328 23.5441 17.0925 24.3056 18.3333 25L23.1946 20.0279L31 21.6804V30.9167H28.75ZM5.70833 11.25L8.875 8.05544L8 3.6946H3.79167C3.83806 4.81488 4.01403 5.99308 4.31958 7.22919C4.62514 8.4653 5.08806 9.80558 5.70833 11.25ZM20.9304 26.3054C22.0601 26.8149 23.2569 27.227 24.5208 27.5417C25.7847 27.8564 27.0185 28.0463 28.2221 28.1113V23.9167L24.0554 23.0696L20.9304 26.3054Z" fill="#E06412" stroke="#E06412" stroke-width="1.5"/>
</svg>
