<svg width="110" height="151" viewBox="0 0 110 151" fill="none" xmlns="http://www.w3.org/2000/svg">
<g clip-path="url(#clip0_29_15)">
<path d="M81.896 142.549C62.9315 154.48 37.4121 153.535 18.6349 141.272C18.6349 141.272 18.6274 141.272 18.6274 141.268C16.4137 140.062 14.3797 138.648 12.5181 137.024C12.0237 136.591 11.5368 136.146 11.0685 135.687C3.68951 128.456 0 117.593 0 103.09C0 88.5867 3.85433 77.3949 11.563 69.5068C19.2716 61.6188 29.6397 57.6767 42.6635 57.6767C47.6903 57.6767 52.7395 58.315 57.8111 59.588C62.8828 60.861 65.827 61.4956 66.651 61.4956C67.4751 61.4956 68.0968 61.3127 68.5089 60.9431C68.861 60.6258 69.2468 60.1069 69.6663 59.3939C69.7936 59.1736 70.0259 59.0318 70.2806 59.0318H70.5465C70.9286 59.0318 71.2395 59.3304 71.2545 59.7112L72.1909 85.0477C72.2059 85.4434 71.8838 85.7757 71.4867 85.7757H70.4229C70.157 85.7757 69.9135 85.6226 69.7936 85.3874C65.8195 77.6039 61.8265 71.4667 57.8111 66.9795C53.7321 62.4214 49.1773 60.1405 44.1468 60.1405C31.5351 60.1405 25.2273 72.4261 25.2273 96.9899V106.726C25.2273 119.049 26.7743 128.355 29.8645 134.642C30.4226 135.769 31.0182 136.792 31.6662 137.722C34.4679 141.761 38.0938 143.87 42.5474 144.049C42.7534 144.053 42.952 144.068 43.158 144.068C47.1958 144.068 49.7729 143.329 50.8853 141.851C51.9978 140.372 52.5559 137.864 52.5559 134.332V111.78C52.5559 111.034 51.9454 110.425 51.1962 110.425H46.001C45.2518 110.425 44.6413 109.817 44.6413 109.07C44.6413 108.32 45.2518 107.711 46.001 107.711H78.8957C79.6448 107.711 80.2554 108.32 80.2554 109.066C80.2554 109.813 79.6411 110.425 78.892 110.425H76.7944C76.0452 110.425 75.4309 111.038 75.4309 111.784V135.344C75.4309 135.851 75.9853 136.161 76.4273 135.904C76.7344 135.724 77.0378 135.542 77.3375 135.351C92.1854 126.228 98.0025 107.506 96.2271 90.8601C93.9047 70.1564 82.4167 60.3421 66.9244 49.658C65.7183 48.8255 64.4897 47.9893 63.2387 47.1419C56.5488 42.4158 48.7391 36.4279 47.7277 27.614C47.0535 22.3392 48.8327 16.8889 51.7506 12.6667C57.4291 4.31579 67.3702 -0.80228 77.4611 0.104862C83.9749 0.545367 93.5414 3.61024 96.2533 9.62052C96.5305 10.2365 96.9425 11.5841 97.8902 10.6397C98.6393 9.89304 99.5982 12.062 98.7704 13.4059C96.3282 17.3891 91.8483 22.4773 88.4809 24.8665C88.1438 25.1054 86.2785 24.0788 86.7916 23.2501C87.0089 22.9029 88.5409 20.8534 88.9005 20.3121C88.9267 20.2673 88.9641 20.1964 88.9904 20.1516C90.4437 16.9971 92.3503 11.9238 91.058 9.73998C88.0202 4.62564 83.1883 2.90842 77.33 3.00921C71.5466 3.04281 65.7932 5.09228 61.3958 8.8627C57.1744 12.3979 56.8935 13.04 56.3129 18.4792C55.6349 24.0116 63.3848 33.6953 67.6698 37.167C71.3631 40.1498 75.3485 42.6622 79.3602 45.2119C83.1358 47.6122 86.934 50.0425 90.5411 52.9282C101.295 61.1372 106.535 70.8097 109.127 84.1816C113.476 105.345 101.1 130.849 81.896 142.549Z" fill="#E06412"/>
</g>
<defs>
<clipPath id="clip0_29_15">
<rect width="110" height="151" fill="white"/>
</clipPath>
</defs>
</svg>
